<svg xmlns="http://www.w3.org/2000/svg" viewBox="0 0 605 605" width="30" height="30">
	<style>
		tspan { white-space:pre }
		.shp0 { fill: #ffffff } 
	</style>
	<g id="Layer">
		<g id="google-plus">
			<path id="Layer" fill-rule="evenodd" class="shp0" d="M592.88 255L592.88 306L516.38 306L516.38 382.5L465.38 382.5L465.38 306L388.88 306L388.88 255L465.38 255L465.38 178.5L516.38 178.5L516.38 255L592.88 255ZM383.78 453.9C383.78 527.85 317.48 604.35 179.78 604.35C65.03 604.35 11.48 548.25 11.48 489.6C11.48 461.55 24.23 423.3 70.13 395.25C118.58 364.65 184.88 357 220.58 354.45C207.83 339.15 197.63 328.95 197.63 303.45C197.63 290.7 205.28 277.95 207.83 270.3L187.43 270.3C105.83 270.3 59.93 206.55 59.93 147.9C59.93 71.4 116.03 0 228.23 0L386.33 0L355.73 35.7L312.38 35.7C330.23 51 363.38 81.6 363.38 135.15C363.38 191.25 330.22 219.3 297.07 244.8C284.32 252.45 271.57 267.75 271.57 285.6C271.57 303.45 281.77 313.65 291.97 321.3L320.02 341.7C355.73 372.3 383.77 400.35 383.78 453.9ZM223.13 247.35C243.52 247.35 297.07 234.6 297.07 168.3C297.07 117.3 261.38 28.05 195.07 28.05C159.38 28.05 126.22 53.55 126.22 109.65C126.22 168.3 159.38 247.35 223.13 247.35ZM335.32 481.95C335.32 441.15 309.82 423.3 248.62 379.95C243.52 379.95 238.42 379.95 230.77 379.95C223.12 379.95 179.77 382.5 146.62 392.7C131.32 400.35 80.32 418.2 80.32 474.3C80.32 530.4 133.87 568.65 218.02 568.65C286.88 568.65 335.32 530.4 335.32 481.95Z" />
		</g>
	</g>
	<g id="Layer">
	</g>
	<g id="Layer">
	</g>
	<g id="Layer">
	</g>
	<g id="Layer">
	</g>
	<g id="Layer">
	</g>
	<g id="Layer">
	</g>
	<g id="Layer">
	</g>
	<g id="Layer">
	</g>
	<g id="Layer">
	</g>
	<g id="Layer">
	</g>
	<g id="Layer">
	</g>
	<g id="Layer">
	</g>
	<g id="Layer">
	</g>
	<g id="Layer">
	</g>
	<g id="Layer">
	</g>
</svg>